<?xml version="1.0" encoding="iso-8859-1"?>
<!-- Generator: Adobe Illustrator 19.0.0, SVG Export Plug-In . SVG Version: 6.00 Build 0)  -->
<svg version="1.1" id="Capa_1" xmlns="http://www.w3.org/2000/svg" xmlns:xlink="http://www.w3.org/1999/xlink" x="0px" y="0px"
	 viewBox="0 0 497.261 497.261" style="enable-background:new 0 0 497.261 497.261;" xml:space="preserve">
<circle style="fill:#FDBF5E;" cx="311.467" cy="185.406" r="185.406"/>
<path style="fill:#193651;" d="M299.83,497.261H83.394c-4.655,0-7.758-3.103-7.758-7.758s3.103-7.758,7.758-7.758H299.83
	c4.655,0,7.758,3.103,7.758,7.758S304.485,497.261,299.83,497.261z"/>
<polygon style="fill:#CFD0D1;" points="115.2,489.503 268.8,489.503 234.667,443.733 148.558,443.733 "/>
<path style="fill:#193651;" d="M268.8,497.261H115.2c-3.103,0-5.43-1.551-6.982-3.879s-0.776-5.43,0.776-7.758l33.358-46.545
	c1.552-2.327,3.879-3.103,6.206-3.103h86.109c2.327,0,4.655,1.552,6.206,3.103l33.358,46.545c1.552,2.327,2.327,5.43,0.776,7.758
	C274.23,495.709,271.127,497.261,268.8,497.261z M129.939,481.745h123.345l-22.497-31.03h-78.352L129.939,481.745z"/>
<path style="fill:#2EA2DB;" d="M375.079,188.509c0-19.394-15.515-35.685-35.685-35.685H43.83c-19.394,0-35.685,15.515-35.685,35.685
	v197.042h366.933V188.509z"/>
<path style="fill:#193651;" d="M375.079,393.309H8.145c-4.655,0-7.758-3.103-7.758-7.758V188.509
	c0-24.048,19.394-43.442,43.442-43.442H340.17c24.048,0,43.442,19.394,43.442,43.442v197.042
	C382.836,390.206,379.733,393.309,375.079,393.309z M15.903,377.794h351.418V188.509c0-15.515-12.412-27.927-27.927-27.927H43.83
	c-15.515,0-27.927,12.412-27.927,27.927V377.794z"/>
<g>
	<path style="fill:#FFFFFF;" d="M36.073,357.624V188.509c0-3.879,3.103-6.982,6.982-6.982h296.339c3.879,0,6.982,3.103,6.982,6.982
		v169.115H36.073z"/>
	<path style="fill:#FFFFFF;" d="M8.145,385.552v22.497c0,19.394,15.515,35.685,35.685,35.685H340.17
		c19.394,0,35.685-15.515,35.685-35.685v-22.497H8.145z"/>
</g>
<path style="fill:#193651;" d="M340.17,451.491H43.83c-24.048,0-43.442-19.394-43.442-43.442v-22.497
	c0-4.655,3.103-7.758,7.758-7.758h366.933c4.655,0,7.758,3.103,7.758,7.758v22.497C382.836,432.097,363.442,451.491,340.17,451.491z
	 M15.903,393.309v14.739c0,15.515,12.412,27.927,27.927,27.927H340.17c15.515,0,27.927-12.412,27.927-27.927v-14.739H15.903z"/>
<rect x="230.788" y="408.048" style="fill:#193651;" width="15.515" height="13.964"/>
<rect x="184.242" y="408.048" style="fill:#193651;" width="15.515" height="13.964"/>
<rect x="136.921" y="408.048" style="fill:#193651;" width="15.515" height="13.964"/>
<polygon style="fill:#FFFFFF;" points="123.733,231.176 52.364,231.176 88.048,298.667 "/>
<path style="fill:#193651;" d="M88.048,306.424c-3.103,0-5.43-1.552-6.982-3.879l-35.685-67.491c-1.552-2.327-1.552-5.43,0-7.758
	s3.879-3.879,6.982-3.879h70.594c2.327,0,5.43,1.552,6.982,3.879s1.552,5.43,0,7.758l-35.685,67.491
	C93.479,304.873,91.152,306.424,88.048,306.424z M65.552,238.933l22.497,43.442l22.497-43.442L65.552,238.933L65.552,238.933z"/>
<rect x="52.364" y="67.491" style="fill:#FFFFFF;" width="70.594" height="162.909"/>
<path style="fill:#193651;" d="M123.733,238.933h-71.37c-4.655,0-7.758-3.103-7.758-7.758V68.267c0-4.655,3.103-7.758,7.758-7.758
	h70.594c4.655,0,7.758,3.103,7.758,7.758v162.909C131.491,235.055,127.612,238.933,123.733,238.933z M60.121,223.418H115.2V76.024
	H60.121V223.418z"/>
<rect x="74.861" y="89.988" style="fill:#FDBF5E;" width="27.152" height="119.467"/>
<path style="fill:#F16051;" d="M108.994,8.533H67.103c-7.758,0-14.739,6.982-14.739,14.739v44.218h70.594V23.273
	C123.733,15.515,116.752,8.533,108.994,8.533z"/>
<path style="fill:#193651;" d="M123.733,75.248h-71.37c-4.655,0-7.758-3.103-7.758-7.758V23.273
	c0-12.412,10.085-22.497,22.497-22.497h41.891c12.412,0,22.497,10.085,22.497,22.497v44.218
	C131.491,72.145,127.612,75.248,123.733,75.248z M60.121,59.733H115.2V23.273c0.776-3.879-2.327-6.982-6.206-6.982H67.103
	c-3.879,0-6.982,3.103-6.982,6.982V59.733z"/>
<path style="fill:#FFFFFF;" d="M171.055,136.533v161.358c0,11.636,9.309,20.945,20.945,20.945h239.709
	c11.636,0,20.945-9.309,20.945-20.945V136.533H171.055z"/>
<path style="fill:#193651;" d="M431.709,327.37H192c-16.291,0-28.703-13.188-28.703-28.703V136.533c0-4.655,3.103-7.758,7.758-7.758
	h281.6c4.655,0,7.758,3.103,7.758,7.758v161.358C460.412,314.182,447.224,327.37,431.709,327.37z M178.812,144.291v153.6
	c0,7.758,6.206,13.188,13.188,13.188h239.709c7.758,0,13.188-6.206,13.188-13.188v-153.6H178.812z"/>
<path style="fill:#E1E6E9;" d="M431.709,79.903H192c-11.636,0-20.945,9.309-20.945,20.945v35.685h281.6v-34.909
	C452.655,89.988,443.345,79.903,431.709,79.903z"/>
<path style="fill:#193651;" d="M431.709,72.145H192c-16.291,0-28.703,13.188-28.703,28.703v35.685c0,4.655,3.103,7.758,7.758,7.758
	h281.6c4.655,0,7.758-3.103,7.758-7.758v-34.909C460.412,85.333,447.224,72.145,431.709,72.145z M444.897,128.776H178.812v-27.152
	c0-7.758,6.206-13.188,13.188-13.188h239.709c7.758,0,13.188,6.206,13.188,13.188V128.776z"/>
<g>
	<rect x="318.448" y="165.236" style="fill:#E1E6E9;" width="25.6" height="22.497"/>
	<rect x="358.788" y="165.236" style="fill:#E1E6E9;" width="25.6" height="22.497"/>
	<rect x="398.352" y="165.236" style="fill:#E1E6E9;" width="25.6" height="22.497"/>
	<rect x="198.982" y="199.37" style="fill:#E1E6E9;" width="25.6" height="22.497"/>
</g>
<rect x="239.321" y="199.37" style="fill:#F16051;" width="25.6" height="22.497"/>
<g>
	<rect x="278.885" y="199.37" style="fill:#E1E6E9;" width="25.6" height="22.497"/>
	<rect x="318.448" y="199.37" style="fill:#E1E6E9;" width="25.6" height="22.497"/>
	<rect x="358.788" y="199.37" style="fill:#E1E6E9;" width="25.6" height="22.497"/>
	<rect x="398.352" y="199.37" style="fill:#E1E6E9;" width="25.6" height="22.497"/>
	<rect x="198.982" y="234.279" style="fill:#E1E6E9;" width="25.6" height="22.497"/>
	<rect x="239.321" y="234.279" style="fill:#E1E6E9;" width="25.6" height="22.497"/>
	<rect x="278.885" y="234.279" style="fill:#E1E6E9;" width="25.6" height="22.497"/>
</g>
<rect x="318.448" y="234.279" style="fill:#F16051;" width="25.6" height="22.497"/>
<g>
	<rect x="358.788" y="234.279" style="fill:#E1E6E9;" width="25.6" height="22.497"/>
	<rect x="398.352" y="234.279" style="fill:#E1E6E9;" width="25.6" height="22.497"/>
	<rect x="198.982" y="268.412" style="fill:#E1E6E9;" width="25.6" height="22.497"/>
	<rect x="239.321" y="268.412" style="fill:#E1E6E9;" width="25.6" height="22.497"/>
	<rect x="278.885" y="268.412" style="fill:#E1E6E9;" width="25.6" height="22.497"/>
</g>
<g>
	<rect x="271.127" y="101.624" style="fill:#193651;" width="15.515" height="13.964"/>
	<rect x="303.709" y="101.624" style="fill:#193651;" width="15.515" height="13.964"/>
	<rect x="337.067" y="101.624" style="fill:#193651;" width="15.515" height="13.964"/>
</g>
<rect x="377.406" y="51.976" style="fill:#FFFFFF;" width="29.479" height="56.63"/>
<path style="fill:#193651;" d="M406.885,116.364h-29.479c-4.655,0-7.758-3.103-7.758-7.758v-56.63c0-4.655,3.103-7.758,7.758-7.758
	h29.479c4.655,0,7.758,3.103,7.758,7.758v56.63C414.642,112.485,410.764,116.364,406.885,116.364z M385.164,100.848h13.964V59.733
	h-13.964V100.848z"/>
<rect x="216.824" y="51.976" style="fill:#FFFFFF;" width="29.479" height="56.63"/>
<path style="fill:#193651;" d="M246.303,116.364h-29.479c-4.655,0-7.758-3.103-7.758-7.758v-56.63c0-4.655,3.103-7.758,7.758-7.758
	h29.479c4.655,0,7.758,3.103,7.758,7.758v56.63C254.061,112.485,250.958,116.364,246.303,116.364z M224.582,100.848h13.964V59.733
	h-13.964V100.848z"/>
<g>
</g>
<g>
</g>
<g>
</g>
<g>
</g>
<g>
</g>
<g>
</g>
<g>
</g>
<g>
</g>
<g>
</g>
<g>
</g>
<g>
</g>
<g>
</g>
<g>
</g>
<g>
</g>
<g>
</g>
</svg>
