<?xml version="1.0" encoding="iso-8859-1"?>
<!-- Generator: Adobe Illustrator 19.0.0, SVG Export Plug-In . SVG Version: 6.00 Build 0)  -->
<svg version="1.1" id="Capa_1" xmlns="http://www.w3.org/2000/svg" xmlns:xlink="http://www.w3.org/1999/xlink" x="0px" y="0px"
	 viewBox="0 0 496.485 496.485" style="enable-background:new 0 0 496.485 496.485;" xml:space="preserve">
<path style="fill:#E1E6E9;" d="M451.491,7.758H44.994c-20.17,0-37.236,17.067-37.236,37.236v80.679h480.97V44.994
	C488.727,24.824,471.661,7.758,451.491,7.758z"/>
<path style="fill:#193651;" d="M488.727,133.43H7.758c-4.655,0-7.758-3.103-7.758-7.758V44.994C0,20.17,20.17,0,44.994,0h405.721
	c25.6,0,45.77,20.17,45.77,44.994v80.679C496.485,130.327,493.382,133.43,488.727,133.43z M15.515,117.915H480.97V44.994
	c0-16.291-13.188-29.479-29.479-29.479H44.994c-16.291,0-29.479,13.188-29.479,29.479V117.915z"/>
<path style="fill:#FDBF5E;" d="M7.758,125.673v325.042c0,20.945,17.067,38.012,37.236,38.012h405.721
	c20.945,0,37.236-17.067,37.236-37.236V125.673H7.758z"/>
<path style="fill:#193651;" d="M451.491,496.485H44.994C20.17,496.485,0,476.315,0,451.491V125.673c0-4.655,3.103-7.758,7.758-7.758
	h480.97c4.655,0,7.758,3.103,7.758,7.758v325.042C496.485,476.315,476.315,496.485,451.491,496.485z M15.515,133.43v317.285
	c0,17.067,13.188,30.255,29.479,30.255h405.721c16.291,0,29.479-13.188,29.479-29.479V133.43H15.515z"/>
<g>
	<path style="fill:#FFFFFF;" d="M44.994,458.473c-3.879,0-7.758-3.103-7.758-7.758V155.927h420.461v294.788
		c0,3.879-3.103,7.758-7.758,7.758H44.994z"/>
	<circle style="fill:#FFFFFF;" cx="387.103" cy="66.715" r="22.497"/>
</g>
<path style="fill:#193651;" d="M387.103,96.97c-16.291,0-30.255-13.188-30.255-30.255c0-16.291,13.188-30.255,30.255-30.255
	c16.291,0,30.255,13.188,30.255,30.255C417.358,83.782,403.394,96.97,387.103,96.97z M387.103,51.976
	c-7.758,0-14.739,6.206-14.739,14.739s6.206,14.739,14.739,14.739c7.758,0,14.739-6.206,14.739-14.739
	S394.861,51.976,387.103,51.976z"/>
<circle style="fill:#FFFFFF;" cx="109.382" cy="66.715" r="22.497"/>
<path style="fill:#193651;" d="M109.382,96.97c-16.291,0-30.255-13.188-30.255-30.255c0-16.291,13.188-30.255,30.255-30.255
	c16.291,0,30.255,13.188,30.255,30.255S125.673,96.97,109.382,96.97z M109.382,51.976c-7.758,0-14.739,6.206-14.739,14.739
	s6.206,14.739,14.739,14.739c7.758,0,14.739-6.206,14.739-14.739S117.139,51.976,109.382,51.976z"/>
<g>
	<rect x="325.042" y="177.648" style="fill:#E1E6E9;" width="38.788" height="36.461"/>
	<rect x="389.43" y="177.648" style="fill:#E1E6E9;" width="38.788" height="36.461"/>
	<rect x="67.491" y="233.503" style="fill:#E1E6E9;" width="38.788" height="36.461"/>
	<rect x="131.879" y="233.503" style="fill:#E1E6E9;" width="38.788" height="36.461"/>
	<rect x="196.267" y="233.503" style="fill:#E1E6E9;" width="38.788" height="36.461"/>
	<rect x="260.655" y="233.503" style="fill:#E1E6E9;" width="38.788" height="36.461"/>
	<rect x="325.042" y="233.503" style="fill:#E1E6E9;" width="38.788" height="36.461"/>
	<rect x="389.43" y="233.503" style="fill:#E1E6E9;" width="38.788" height="36.461"/>
	<rect x="67.491" y="289.358" style="fill:#E1E6E9;" width="38.788" height="36.461"/>
</g>
<rect x="131.879" y="289.358" style="fill:#2EA2DB;" width="38.788" height="36.461"/>
<g>
	<rect x="196.267" y="289.358" style="fill:#E1E6E9;" width="38.788" height="36.461"/>
	<rect x="260.655" y="289.358" style="fill:#E1E6E9;" width="38.788" height="36.461"/>
	<rect x="325.042" y="289.358" style="fill:#E1E6E9;" width="38.788" height="36.461"/>
	<rect x="389.43" y="289.358" style="fill:#E1E6E9;" width="38.788" height="36.461"/>
	<rect x="67.491" y="344.436" style="fill:#E1E6E9;" width="38.788" height="36.461"/>
	<rect x="131.879" y="344.436" style="fill:#E1E6E9;" width="38.788" height="36.461"/>
	<rect x="196.267" y="344.436" style="fill:#E1E6E9;" width="38.788" height="36.461"/>
	<rect x="260.655" y="344.436" style="fill:#E1E6E9;" width="38.788" height="36.461"/>
</g>
<rect x="325.042" y="344.436" style="fill:#2EA2DB;" width="38.788" height="36.461"/>
<g>
	<rect x="389.43" y="344.436" style="fill:#E1E6E9;" width="38.788" height="36.461"/>
	<rect x="67.491" y="400.291" style="fill:#E1E6E9;" width="38.788" height="36.461"/>
	<rect x="131.879" y="400.291" style="fill:#E1E6E9;" width="38.788" height="36.461"/>
	<rect x="196.267" y="400.291" style="fill:#E1E6E9;" width="38.788" height="36.461"/>
</g>
<g>
	<rect x="198.594" y="58.958" style="fill:#193651;" width="15.515" height="15.515"/>
	<rect x="240.485" y="58.958" style="fill:#193651;" width="15.515" height="15.515"/>
</g>
<rect x="282.376" y="58.958" style="fill:#193651;" width="15.515" height="15.515"/>
<g>
</g>
<g>
</g>
<g>
</g>
<g>
</g>
<g>
</g>
<g>
</g>
<g>
</g>
<g>
</g>
<g>
</g>
<g>
</g>
<g>
</g>
<g>
</g>
<g>
</g>
<g>
</g>
<g>
</g>
</svg>
